<svg width="293" height="61" viewBox="0 0 293 61" fill="none" xmlns="http://www.w3.org/2000/svg">
<path d="M89.96 47.24C87.912 47.24 85.928 46.776 84.008 45.848V39.848C86.152 41.096 87.88 41.72 89.192 41.72C90.184 41.72 90.968 41.448 91.544 40.904C92.12 40.328 92.408 39.496 92.408 38.408V38.36C92.408 36.92 91.336 35.016 89.192 32.648C87.048 30.28 85.56 28.36 84.728 26.888C83.928 25.416 83.528 23.752 83.528 21.896V21.848C83.528 19.224 84.296 17.128 85.832 15.56C87.4 13.96 89.4 13.16 91.832 13.16C93.592 13.16 95.272 13.512 96.872 14.216V20.216C95.144 19.192 93.656 18.68 92.408 18.68C91.544 18.68 90.824 18.952 90.248 19.496C89.672 20.008 89.384 20.744 89.384 21.704V21.752C89.384 22.424 89.592 23.144 90.008 23.912C90.424 24.648 91.304 25.768 92.648 27.272C94.92 29.928 96.424 31.992 97.16 33.464C97.896 34.936 98.264 36.6 98.264 38.456V38.504C98.264 41.064 97.464 43.16 95.864 44.792C94.264 46.424 92.296 47.24 89.96 47.24ZM100.337 47V13.4H105.569C108.897 13.4 111.537 14.344 113.489 16.232C115.441 18.088 116.417 20.92 116.417 24.728V24.824C116.417 28.472 115.489 31.272 113.633 33.224C111.809 35.176 109.345 36.248 106.241 36.44H106.193V47H100.337ZM106.193 31.016H106.241C107.553 30.952 108.593 30.424 109.361 29.432C110.161 28.44 110.561 26.968 110.561 25.016V24.92C110.561 20.856 109.169 18.824 106.385 18.824H106.193V31.016ZM115.439 47L121.823 13.304H128.063L134.447 47H128.591L127.487 40.328H122.159L121.103 47H115.439ZM123.023 35.048H126.623L124.847 23.96L123.023 35.048ZM136.244 47V13.4H142.292C145.556 13.4 148.084 14.296 149.876 16.088C151.732 17.944 152.66 20.616 152.66 24.104V24.536C152.66 28.472 151.348 31.416 148.724 33.368L153.236 47H146.996L143.204 35.288H142.1V47H136.244ZM142.1 30.008H142.388C145.332 30.008 146.804 28.2 146.804 24.584V24.2C146.804 20.648 145.284 18.872 142.244 18.872H142.1V30.008ZM155.369 47V13.4H161.225V27.8L166.073 13.4H172.505L166.889 27.608L172.601 47H166.265L162.569 34.136L161.225 37.88V47H155.369ZM179.96 47.24C177.912 47.24 175.928 46.776 174.008 45.848V39.848C176.152 41.096 177.88 41.72 179.192 41.72C180.184 41.72 180.968 41.448 181.544 40.904C182.12 40.328 182.408 39.496 182.408 38.408V38.36C182.408 36.92 181.336 35.016 179.192 32.648C177.048 30.28 175.56 28.36 174.728 26.888C173.928 25.416 173.528 23.752 173.528 21.896V21.848C173.528 19.224 174.296 17.128 175.832 15.56C177.4 13.96 179.4 13.16 181.832 13.16C183.592 13.16 185.272 13.512 186.872 14.216V20.216C185.144 19.192 183.656 18.68 182.408 18.68C181.544 18.68 180.824 18.952 180.248 19.496C179.672 20.008 179.384 20.744 179.384 21.704V21.752C179.384 22.424 179.592 23.144 180.008 23.912C180.424 24.648 181.304 25.768 182.648 27.272C184.92 29.928 186.424 31.992 187.16 33.464C187.896 34.936 188.264 36.6 188.264 38.456V38.504C188.264 41.064 187.464 43.16 185.864 44.792C184.264 46.424 182.296 47.24 179.96 47.24ZM197.931 47V13.4H210.171V18.968H203.787V27.416H209.355V32.984H203.787V47H197.931ZM227.202 43.304C225.602 46.088 223.426 47.48 220.674 47.48C217.922 47.48 215.746 46.088 214.146 43.304C212.546 40.52 211.746 36.44 211.746 31.064V29.336C211.746 23.96 212.546 19.88 214.146 17.096C215.746 14.312 217.922 12.92 220.674 12.92C223.426 12.92 225.602 14.312 227.202 17.096C228.802 19.88 229.602 23.96 229.602 29.336V31.064C229.602 36.44 228.802 40.52 227.202 43.304ZM219.09 41.192C219.506 41.8 220.034 42.104 220.674 42.104C221.314 42.104 221.842 41.8 222.258 41.192C222.674 40.584 223.01 39.448 223.266 37.784C223.522 36.088 223.65 33.848 223.65 31.064V29.336C223.65 26.552 223.522 24.328 223.266 22.664C223.01 20.968 222.674 19.816 222.258 19.208C221.842 18.6 221.314 18.296 220.674 18.296C220.034 18.296 219.506 18.6 219.09 19.208C218.674 19.816 218.338 20.968 218.082 22.664C217.826 24.328 217.698 26.552 217.698 29.336V31.064C217.698 33.848 217.826 36.088 218.082 37.784C218.338 39.448 218.674 40.584 219.09 41.192ZM232.478 47V13.4H238.526C241.79 13.4 244.318 14.296 246.11 16.088C247.966 17.944 248.894 20.616 248.894 24.104V24.536C248.894 28.472 247.582 31.416 244.958 33.368L249.47 47H243.23L239.438 35.288H238.334V47H232.478ZM238.334 30.008H238.622C241.566 30.008 243.038 28.2 243.038 24.584V24.2C243.038 20.648 241.518 18.872 238.478 18.872H238.334V30.008ZM265.673 44.888C264.169 46.584 262.153 47.432 259.625 47.432C257.097 47.432 255.065 46.584 253.529 44.888C252.025 43.16 251.273 40.6 251.273 37.208V13.4H257.129V37.784C257.129 40.568 257.961 41.96 259.625 41.96C261.289 41.96 262.121 40.568 262.121 37.784V13.4H267.977V37.208C267.977 40.6 267.209 43.16 265.673 44.888ZM271.337 47V13.4H277.241L281.273 26.168L285.305 13.4H291.209V47H285.593V26.6L281.321 39.416H281.225L276.953 26.6V47H271.337Z" fill="white"/>
<path d="M0 0H59V45.0701C47.7388 41.0703 36.3754 35.0534 27.4755 28.2659C24.2481 25.8046 21.6454 22.3759 21.5761 18.2983C21.5131 14.5998 22.8738 10.9369 25.7501 8.50833C20.4331 12.9975 12.5075 12.2978 8.04795 6.94547C12.5075 12.2978 11.8125 20.2761 6.49544 24.7654C9.45095 22.27 13.4445 21.6308 17.1672 22.4632C20.2976 23.1631 24.6533 26.9263 26.415 29.6258C32.3108 38.6599 36.177 51.0801 36.875 61H0V0Z" fill="white"/>
</svg>
