<svg width="61" height="61" viewBox="0 0 61 61" fill="none" xmlns="http://www.w3.org/2000/svg">
<path fill-rule="evenodd" clip-rule="evenodd" d="M30.5 61C47.3438 61 61 47.3447 61 30.5C61 13.6553 47.3438 0 30.5 0C13.6562 0 0 13.6553 0 30.5C0 47.3447 13.6562 61 30.5 61ZM30.5 58C45.6875 58 58 45.688 58 30.5C58 15.312 45.6875 3 30.5 3C15.3125 3 3 15.312 3 30.5C3 45.688 15.3125 58 30.5 58Z" fill="#0A0A0A"/>
<path fill-rule="evenodd" clip-rule="evenodd" d="M57 30.5C57 45.1357 45.1367 57 30.5 57C15.8633 57 4 45.1357 4 30.5C4 15.8643 15.8633 4 30.5 4C45.1367 4 57 15.8643 57 30.5ZM23.6055 20.7993C21.75 22.272 20.5 24.4688 20.5 27.498V43.498H17.5V27.498C17.5 23.5288 19.1875 20.4766 21.7383 18.4497C22.7812 17.624 23.9531 16.9766 25.1992 16.501C26.9609 15.8276 28.8672 15.5 30.75 15.5C33.9648 15.5 37.2461 16.4541 39.7617 18.4497C42.3125 20.4766 44 23.5288 44 27.498V43.498H41V27.498C41 24.4688 39.75 22.272 37.8945 20.7993C36.0039 19.2954 33.4102 18.5 30.75 18.5C29.5 18.5 28.2656 18.6758 27.1094 19.0186C25.8047 19.4048 24.6055 20.0024 23.6055 20.7993ZM36.5 33.5005C37.6055 33.5005 38.5 32.605 38.5 31.5005C38.5 30.8433 38.1836 30.2603 37.6953 29.8955C37.3633 29.6475 36.9492 29.5005 36.5 29.5005C35.3945 29.5005 34.5 30.396 34.5 31.5005C34.5 32.605 35.3945 33.5005 36.5 33.5005Z" fill="#0A0A0A"/>
</svg>
