<svg width="88" height="61" viewBox="0 0 88 61" fill="none" xmlns="http://www.w3.org/2000/svg">
<path d="M81.0268 0.666335C85.0268 -1.01382 87.0268 0.66581 87.0268 3.66606C87.0268 8.66606 83.4956 15.912 82.0268 19.666C77.5273 31.166 28.5273 37.666 7.02678 45.666C-0.472687 48.2788 -1.96337 42.093 2.52678 39.1663C22.5268 26.1663 56.0268 11.1663 81.0268 0.666335Z" fill="#0A0A0A"/>
<path d="M15.5234 48.6661C35.5091 41.3318 52.0536 36.8131 73.5273 32.5C76.0273 32 78.5273 32 78.5273 35.5V42C78.5273 45.3213 72.9737 46.1571 67.4327 47.0203C66.9098 47.1018 66.5261 47.5541 66.5261 48.0834C66.5261 48.6813 67.0108 49.166 67.6087 49.166H69.5273C76.5273 48.6661 77.5274 48.6661 82.0273 51.666C85.0273 53.666 87.5273 55.166 87.5273 58.166C87.5273 60.166 83.5273 60.166 78.5273 60.166C69.4063 60.166 61.1883 57.2476 56.1159 51.7045C55.7155 51.267 55.155 50.9986 54.5619 51.0052C42.0827 51.1453 33.6241 54.0775 20.0204 57.666C14.337 59.1665 12.028 49.9485 15.5234 48.6661Z" fill="#0A0A0A"/>
</svg>
