<svg width="273" height="60" viewBox="0 0 273 60" fill="none" xmlns="http://www.w3.org/2000/svg">
<path fill-rule="evenodd" clip-rule="evenodd" d="M32.716 0.12206C23.7852 1.10595 15.8131 6.91832 12.3404 14.9775C5.90287 29.9177 14.7976 46.6769 30.7872 49.7348C32.7951 50.1188 37.2021 50.1771 39.2601 49.8468C49.9146 48.137 58.2708 39.8847 60.1462 29.2203C60.5375 26.9956 60.4898 22.719 60.0485 20.4492C58.3256 11.5902 52.0862 4.34151 43.659 1.40834C40.3166 0.244887 36.0998 -0.250669 32.716 0.12206ZM32.4042 0.978659C27.9178 1.50057 21.8748 4.24546 19.2327 6.96167L18.5467 7.66697L20.0122 9.11624L21.478 10.5655L23.0491 9.37145C26.075 7.07111 29.7124 5.60548 33.2572 5.25804L34.8567 5.10121V2.97618C34.8567 0.523903 35.0388 0.67223 32.4042 0.978659ZM35.8163 2.96896V5.20746H36.785C38.2906 5.20746 40.8574 5.80311 42.9226 6.63187C44.5161 7.2715 44.8848 7.35013 45.334 7.14612C45.6255 7.01373 46.0996 6.96443 46.3875 7.03647C46.8087 7.14166 46.885 7.10065 46.7788 6.82482C46.576 6.29803 47.2731 6.40024 47.563 6.93978C47.7722 7.32909 47.7575 7.37733 47.4638 7.26512C47.2742 7.19266 47.1192 7.23495 47.1192 7.35905C47.1192 7.48315 47.3079 7.63403 47.5386 7.69417C47.7694 7.75409 48.0129 7.97552 48.0799 8.1859C48.1469 8.39606 48.342 8.62195 48.5135 8.68741C48.6849 8.75307 48.8253 9.00085 48.8253 9.23843C48.8253 9.48047 48.9658 9.67002 49.1451 9.67002C49.3211 9.67002 49.465 9.83471 49.465 10.0357C49.465 10.2793 49.9329 9.9416 50.8642 9.02635L52.2634 7.65124L51.3441 6.82779C50.8384 6.37495 49.7529 5.55172 48.9319 4.99815C45.3092 2.55585 42.0502 1.43065 36.936 0.856045L35.8163 0.730243V2.96896ZM15.0234 3.262C11.2561 4.95118 10.015 6.19836 8.93608 9.37868C8.58932 10.401 8.30568 11.3184 8.30568 11.4179C8.30568 11.5171 9.05935 10.9697 9.98064 10.2013C11.0855 9.27965 12.1915 8.06541 13.2297 6.63399C14.0953 5.44036 15.1772 4.05718 15.6338 3.56057C16.0903 3.06373 16.4277 2.66444 16.3834 2.67273C16.3392 2.68123 15.7272 2.94643 15.0234 3.262ZM54.9311 3.5459C55.4157 4.0506 56.496 5.39064 57.3318 6.52328C58.6427 8.30044 61.1814 10.8828 62.146 11.4206C62.5428 11.642 61.4166 8.27876 60.667 7.00438C59.7562 5.45545 57.9221 4.13496 55.2231 3.08456L54.0501 2.6281L54.9311 3.5459ZM38.3755 3.14959L37.6291 3.39078L38.5597 3.4626C39.0718 3.50192 39.6476 3.47004 39.8393 3.39184C40.1436 3.26752 40.1338 3.22694 39.7617 3.07457C39.236 2.85931 39.2812 2.85676 38.3755 3.14959ZM36.5114 3.64748C36.1804 3.78072 36.695 4.35745 37.1447 4.35745C37.3055 4.35745 37.5568 4.47667 37.7028 4.62223C37.8498 4.76864 37.8142 4.57867 37.6233 4.19722C37.2893 3.53039 37.0707 3.42223 36.5114 3.64748ZM8.73221 6.50394C7.56439 7.20031 6.397 8.4086 5.83484 9.5032C5.13215 10.8717 4.90225 12.7802 5.04748 16.0364L5.17011 18.7843L5.75892 17.9742C6.08287 17.5288 6.86042 16.7451 7.48676 16.2327C10.8644 13.4704 12.7786 11.0974 13.1277 9.23991L13.2663 8.50125L12.7545 9.24501C12.473 9.65408 11.4093 10.6103 10.3909 11.37C8.00264 13.1519 7.35262 13.7877 6.59213 15.0871C5.89882 16.2716 5.79027 16.1473 6.2925 14.7437C6.47527 14.2322 6.90669 12.6389 7.25068 11.2026C7.91904 8.4137 8.18157 7.76451 9.0634 6.72048C9.72536 5.93635 9.70596 5.9236 8.73221 6.50394ZM30.8346 6.49863C28.0423 7.18225 23.9096 9.36571 22.546 10.8779C22.1917 11.2706 22.228 11.3354 23.5056 12.5902L24.8334 13.8946L26.113 12.9194C26.8167 12.383 27.9683 11.6737 28.6721 11.3433C30.188 10.6312 32.993 9.88252 34.1444 9.88252H34.9633V7.97V6.05747L33.737 6.07277C33.0627 6.08127 31.7565 6.27295 30.8346 6.49863ZM35.8366 7.90922L35.8159 9.82111L37.1904 9.94882C37.9462 10.0192 39.2658 10.3301 40.1229 10.6395C40.9798 10.9491 41.9862 11.2172 42.3592 11.2357C43.031 11.2691 43.6309 11.5764 43.0495 11.5893C42.7345 11.5964 43.2069 12.036 43.9898 12.4642C44.3453 12.6587 44.3553 12.6344 44.1049 12.1831C43.9542 11.9113 43.8535 11.5764 43.8812 11.4391C43.909 11.3018 43.7157 11.039 43.4519 10.8547C43.1881 10.6707 43.0855 10.52 43.224 10.52C43.3624 10.52 43.7435 10.8547 44.071 11.2638C44.3986 11.6729 44.7718 12.0075 44.9002 12.0075C45.2928 12.0075 45.9503 12.879 45.8795 13.3055C45.7882 13.8557 46.0288 13.81 46.7251 13.1453C47.174 12.7167 47.267 12.4952 47.116 12.2141C46.8481 11.7151 46.3184 11.5398 45.8439 11.7927C45.5191 11.9659 45.4161 11.8968 45.2369 11.3851C45.1184 11.046 45.0738 10.7164 45.138 10.6524C45.3167 10.4743 44.4425 8.78197 43.8524 8.16401C43.1267 7.40389 39.6774 6.29123 37.5365 6.12675L35.8571 5.99755L35.8366 7.90922ZM62.0596 7.28659C62.459 7.92707 62.9256 9.2431 63.3214 10.8458C63.6667 12.2445 64.1453 13.9536 64.3846 14.6441C64.9482 16.2697 64.9305 16.3547 64.2698 15.1951C63.5373 13.9094 62.4957 12.8667 60.4164 11.338C59.4606 10.6352 58.4186 9.70954 58.101 9.28071L57.5233 8.50125L57.6538 9.22397C57.9844 11.0536 59.4446 12.9759 62.1308 15.1179C63.082 15.8764 64.2553 17.0086 64.7384 17.634L65.6168 18.7709L65.7228 16.0799C65.9032 11.4992 65.4686 9.66513 63.7842 7.89881C63.3568 7.45064 62.6512 6.9009 62.2163 6.67713L61.4256 6.2704L62.0596 7.28659ZM39.4418 7.2035C39.4418 7.2494 39.5857 7.34205 39.7617 7.40941C39.9376 7.47657 40.0816 7.43895 40.0816 7.3259C40.0816 7.21264 39.9376 7.11999 39.7617 7.11999C39.5857 7.11999 39.4418 7.1576 39.4418 7.2035ZM32.6174 7.97658C32.6174 8.08985 32.7614 8.1825 32.9373 8.1825C33.1133 8.1825 33.2572 8.14489 33.2572 8.09899C33.2572 8.05308 33.1133 7.96043 32.9373 7.89307C32.7614 7.82592 32.6174 7.86353 32.6174 7.97658ZM17.1217 9.08564C15.1885 11.1359 13.3772 14.2414 12.38 17.2147C11.6793 19.3043 11.0781 22.3624 11.0781 23.8369V24.773L13.1535 24.7122L15.2288 24.6515L15.4928 22.7389C16.0232 18.8971 17.7009 14.9981 20.0022 12.2592L20.8663 11.2309L19.4324 9.81282C18.6437 9.03315 17.9476 8.395 17.8856 8.395C17.8235 8.395 17.4797 8.70568 17.1217 9.08564ZM51.1916 9.75566C49.7188 11.2364 49.7299 11.1501 50.8512 12.3941C51.9182 13.5777 52.1946 13.9162 52.9474 14.9603C53.4788 15.6974 53.707 16.2087 53.6226 16.4737C53.5524 16.6939 53.6417 17.1567 53.8211 17.5022C54.3534 18.5278 55.0164 21.2085 55.1785 22.9893L55.3297 24.6515H57.4623H59.5949L59.541 23.4827C59.3539 19.4417 57.9119 15.142 55.5852 11.6888C54.401 9.93118 53.1009 8.395 52.7979 8.395C52.6588 8.395 51.9361 9.00722 51.1916 9.75566ZM84.7034 23.9608C84.7753 38.765 84.7872 39.1386 85.243 40.7621C85.955 43.2998 86.8648 44.832 88.8019 46.7566C92.3949 50.3265 97.1996 51.7838 103.74 51.2874C105.96 51.1189 108.994 50.3607 110.526 49.5912C114.295 47.6984 116.885 44.6284 117.973 40.7621C118.431 39.1365 118.442 38.7846 118.511 23.9608L118.583 8.82001H114.307H110.031V23.2598C110.031 33.1418 109.955 38.0549 109.791 38.8256C109.263 41.3055 107.827 43.1666 105.635 44.2094C104.554 44.724 104.051 44.8199 102.007 44.9019C100.12 44.9776 99.399 44.92 98.488 44.6214C96.27 43.8942 94.6394 42.3774 93.7472 40.2111C93.2968 39.1178 93.2893 38.8819 93.23 23.9608L93.1699 8.82001H88.8997H84.6296L84.7034 23.9608ZM126.026 29.8578V50.8955H130.183H134.34L134.395 36.6211L134.449 22.3469L142.983 36.568L151.517 50.7893L155.725 50.8469L159.934 50.9045V29.8622V8.82001H155.776H151.617V22.9514C151.617 30.823 151.535 37.0829 151.431 37.0829C151.329 37.0829 147.432 30.7237 142.771 22.9514L134.296 8.82001H130.161H126.026V29.8578ZM168.251 29.8578V50.8955H172.41H176.569V36.4029C176.569 27.9248 176.647 21.9939 176.758 22.1121C176.904 22.2668 185.29 45.1909 186.958 49.9924L187.272 50.8955H190.091H192.91L198.113 36.5516C200.974 28.6624 203.391 22.2077 203.484 22.2077C203.577 22.2077 203.653 28.6624 203.653 36.5516V50.8955H207.811H211.97V29.8578V8.82001L206.478 8.82319L200.987 8.82638L195.881 23.539C193.073 31.6309 190.612 38.6341 190.413 39.1016C190.052 39.9459 190.048 39.948 189.838 39.4204C189.721 39.1282 187.288 32.1239 184.43 23.8554L179.234 8.82171L173.743 8.82086L168.251 8.82001V29.8578ZM220.927 29.8578V50.8955H225.085H229.244V29.8578V8.82001H225.085H220.927V29.8578ZM238.201 29.8578V50.8955H242.786H247.371V42.0678V33.24L249.012 33.302L250.652 33.3641L256.422 42.1215L262.193 50.8788L267.596 50.8873L273 50.8955L272.056 49.5674C267.181 42.7093 257.394 28.5787 257.394 28.3979C257.394 28.2719 260.609 23.8592 264.539 18.5919C268.468 13.3249 271.683 8.96961 271.683 8.91393C271.683 8.85805 269.358 8.83807 266.515 8.86931L261.348 8.92626L255.631 17.4264L249.914 25.9265L248.642 25.9898L247.371 26.0529V17.4366V8.82001H242.786H238.201V29.8578ZM40.4102 9.50384C40.5068 9.74907 42.0009 10.8386 42.0009 10.6639C42.0009 10.6239 41.619 10.2852 41.1519 9.91142C40.6851 9.53742 40.3513 9.35403 40.4102 9.50384ZM31.5857 11.1643C29.8339 11.6216 27.5503 12.773 26.3013 13.8289L25.4732 14.5289L26.9389 16.0092L28.4047 17.4897L29.696 16.658C31.0425 15.7907 33.2856 14.9826 34.3459 14.9826H34.9633V12.8576V10.7325L34.0569 10.7442C33.5583 10.7506 32.4464 10.9397 31.5857 11.1643ZM35.8163 12.8267V14.9826H36.4337C37.5463 14.9826 39.7617 15.8075 41.034 16.6956L42.2824 17.567L43.7801 16.0748L45.2779 14.5824L44.759 14.146C42.6744 12.3922 39.5623 11.0196 37.1648 10.7965L35.8163 10.6711V12.8267ZM3.41412 12.1992C2.33481 13.875 1.84878 15.4892 1.74386 17.7451C1.65365 19.687 1.68735 19.8772 2.62527 22.7389C3.16162 24.3752 3.67899 26.0931 3.77517 26.5565L3.94983 27.3991L4.42071 26.1124C4.67961 25.4048 5.43754 24.0214 6.10462 23.0386C6.77191 22.0555 7.69469 20.6974 8.15555 20.0202C8.94547 18.8591 9.99748 16.3471 10.0073 15.5978C10.0099 15.408 9.01734 16.2487 7.77104 17.4922C5.43178 19.8259 4.60134 21.1084 4.33967 22.7921C4.08227 24.4479 3.91379 23.7222 4.09314 21.7295C4.21918 20.3294 4.17631 18.8979 3.94407 16.7538C3.63783 13.9262 3.71098 12.073 4.15733 11.3537C4.22408 11.2457 4.23517 11.1575 4.18186 11.1575C4.12854 11.1575 3.78306 11.6263 3.41412 12.1992ZM66.7748 12.1138C66.9313 12.6884 66.9458 13.687 66.8196 15.1951C66.7168 16.4223 66.644 18.8404 66.6581 20.5686C66.6722 22.2967 66.6468 23.6739 66.6016 23.6289C66.5564 23.5838 66.3728 22.9827 66.1934 22.2929C65.7464 20.5733 65.112 19.6761 62.6448 17.2742C60.6971 15.3781 60.5358 15.2652 60.6704 15.8929C60.9911 17.3885 61.892 19.1487 63.8192 22.044C64.9292 23.7118 66.0354 25.6024 66.2772 26.2452C66.5191 26.888 66.7219 27.2361 66.7281 27.0187C66.7343 26.8013 67.1636 25.367 67.6822 23.8312C68.9475 20.0854 69.1648 18.7947 68.8786 16.7296C68.66 15.1522 67.6978 12.7273 66.8784 11.6888C66.5662 11.2931 66.559 11.3227 66.7748 12.1138ZM20.2583 13.3357C18.0984 16.0241 16.483 20.1275 16.3593 23.2398L16.303 24.6515H18.1089H19.915L20.0822 23.6952C20.5298 21.1384 20.7782 20.2726 21.5151 18.7014C21.9537 17.7664 22.6441 16.571 23.0493 16.0451C23.4542 15.5192 23.8652 14.9598 23.962 14.8022C24.0842 14.6035 23.7554 14.1296 22.8932 13.2615C22.2082 12.5717 21.5752 12.0075 21.4865 12.0075C21.3978 12.0075 20.8452 12.6053 20.2583 13.3357ZM46.8193 14.1687C46.5163 14.5997 46.5431 14.6861 47.2305 15.4968C47.6348 15.9737 48.159 16.5651 48.3955 16.8112C48.6318 17.0572 48.8253 17.4089 48.8253 17.593C48.8253 17.7768 48.9507 18.0537 49.1042 18.2082C49.2575 18.3624 49.5109 18.967 49.6672 19.5514C49.8235 20.1358 50.0579 20.7095 50.188 20.8264C50.3183 20.9433 50.4567 21.8022 50.4959 22.7349C50.535 23.6678 50.6126 24.5044 50.6685 24.5943C50.777 24.7692 54.2301 24.8263 54.401 24.6561C54.6291 24.4288 54.1209 21.1316 53.5893 19.3886C53.1199 17.8497 52.9572 17.546 52.6535 17.6423C52.4008 17.7222 52.0385 17.4693 51.4949 16.8341C51.06 16.3258 50.2788 15.7251 49.7589 15.4994C49.1473 15.2338 48.7694 14.9178 48.6881 14.6041C48.5954 14.2463 48.4572 14.153 48.1597 14.2469C47.902 14.3285 47.7105 14.2541 47.6284 14.041C47.4523 13.5837 47.2028 13.623 46.8193 14.1687ZM24.1476 15.9733C22.3777 18.2122 21.157 21.1415 21.0525 23.4005L20.9947 24.6515H21.9363H22.8776L23.4291 23.2895C23.8582 22.2298 24.0904 21.9112 24.4764 21.8541C25.1392 21.7557 25.7931 21.3938 25.7931 21.1252C25.7931 21.0055 25.6732 20.9715 25.5265 21.0497C25.38 21.128 25.5111 20.9662 25.8182 20.6904C26.1256 20.4146 26.6965 19.7307 27.0871 19.1706L27.7975 18.1523L26.2949 16.655L24.7922 15.1577L24.1476 15.9733ZM44.2728 16.7604L42.8667 18.3257L43.6805 19.2042C44.1282 19.6874 44.636 20.0826 44.8087 20.0826C45.2049 20.0826 46.1712 21.1619 46.0927 21.517C46.0121 21.8825 46.3704 21.8509 46.6926 21.4639C47.0213 21.0693 47.7346 21.0474 47.8809 21.4274C47.9406 21.5825 47.8907 21.9684 47.77 22.2848C47.5907 22.7549 47.6148 22.8849 47.9012 22.9944C48.3049 23.1489 48.9722 22.4385 49.1733 21.6403C49.365 20.8791 48.67 19.2441 48.0558 19.0114C47.5084 18.804 47.4224 18.5905 47.7534 18.2607C47.888 18.1266 47.7944 17.7855 47.4868 17.2902C46.9855 16.4831 45.9319 15.1951 45.7728 15.1951C45.721 15.1951 45.0458 15.8995 44.2728 16.7604ZM48.3987 15.6127C48.3987 15.7253 48.6146 15.9306 48.8786 16.0685C49.3558 16.3182 49.3563 16.3171 48.9521 15.8636C48.5009 15.357 48.3987 15.3107 48.3987 15.6127ZM32.6174 16.1586C31.5368 16.4924 29.3797 17.7305 29.2673 18.0815C29.2266 18.2082 29.7478 18.9067 30.4255 19.6336L31.6578 20.9554L32.5108 20.3683C32.98 20.0452 33.5078 19.7696 33.6837 19.7556C33.8597 19.7418 34.2194 19.714 34.4835 19.694C34.9428 19.6591 34.9633 19.576 34.9633 17.7451V15.8326L34.2702 15.8475C33.8891 15.8555 33.1452 15.9956 32.6174 16.1586ZM35.8163 17.7302C35.8163 19.5333 35.8402 19.6319 36.2962 19.7067C36.5683 19.7514 36.9963 19.5967 37.2851 19.3495L37.7941 18.9139L37.6928 19.4728C37.6128 19.9137 37.7148 20.1041 38.1763 20.3759C38.986 20.8525 39.2884 20.8179 39.1134 20.2686C38.9502 19.756 39.4339 19.3023 39.6962 19.722C39.9272 20.0918 40.9871 18.9759 41.0611 18.2851C41.1076 17.8505 40.9495 17.6204 40.3202 17.2054C39.3209 16.5464 37.3145 15.8326 36.4615 15.8326H35.8163V17.7302ZM46.0603 17.5186C45.939 17.7447 45.8396 18.1272 45.8396 18.3686C45.8396 18.61 45.7436 18.8076 45.6263 18.8076C45.509 18.8076 45.4131 18.9033 45.4131 19.0201C45.4131 19.2639 46.0443 19.3151 46.0693 19.0733C46.1279 18.4999 46.2644 18.0889 46.4329 17.9789C46.6722 17.8227 46.6873 17.1076 46.4514 17.1076C46.3578 17.1076 46.1819 17.2925 46.0603 17.5186ZM49.8557 18.4878C49.6446 18.7001 50.1123 19.8908 50.3492 19.7448C50.4761 19.6666 50.477 19.5274 50.3513 19.3731C50.2411 19.2373 50.1163 18.9504 50.0745 18.7354C50.0325 18.5203 49.934 18.409 49.8557 18.4878ZM39.5484 18.8076C39.6209 18.9245 39.8242 19.0201 40.0001 19.0201C40.176 19.0201 40.2607 18.9245 40.1882 18.8076C40.1157 18.6908 39.9124 18.5951 39.7365 18.5951C39.5606 18.5951 39.4759 18.6908 39.5484 18.8076ZM27.9257 19.4451C27.4859 20.0603 27.4844 20.0826 27.8824 20.0826C28.1091 20.0826 28.5476 20.2809 28.8568 20.5232C29.1658 20.7654 29.725 21.0024 30.0995 21.0495L30.7804 21.1354L29.6269 19.9715C28.9924 19.3315 28.4527 18.8076 28.4273 18.8076C28.4019 18.8076 28.1763 19.0945 27.9257 19.4451ZM41.5744 19.5514C41.1862 19.9632 41.1487 20.0826 41.4078 20.0826C41.5917 20.0826 41.7972 19.9392 41.8648 19.7639C42.0973 19.16 42.4146 19.4468 42.3677 20.2189C42.3372 20.7214 42.4247 21.0289 42.617 21.0965C42.7979 21.1598 42.8552 21.1067 42.7644 20.9603C42.678 20.8211 42.7552 20.7202 42.948 20.7202C43.4091 20.7202 43.3632 20.245 42.8384 19.5801C42.2935 18.8897 42.2001 18.8875 41.5744 19.5514ZM0.409486 21.3577C-0.0430532 23.04 0.0495021 26.3687 0.606753 28.4582C1.14161 30.4643 1.60673 31.2937 3.53866 33.6875C4.34244 34.6835 5.16307 35.7354 5.36226 36.025C5.71776 36.5423 5.72437 36.5233 5.73546 34.9566C5.74378 33.7498 5.95619 32.6373 6.6077 30.3878C7.55671 27.111 8.09498 24.3769 8.08773 22.8705L8.08304 21.8889L7.68382 22.7389C7.46416 23.2064 6.83994 24.354 6.29655 25.289C5.75338 26.224 5.11935 27.5967 4.88775 28.3394C4.43798 29.783 4.3337 32.0308 4.67492 32.9252C4.792 33.2321 4.79967 33.4703 4.6924 33.4703C4.58769 33.4703 4.29318 32.5381 4.03791 31.3984C3.78263 30.2588 3.06608 28.1312 2.44549 26.6702C1.04756 23.3786 1.01195 23.2645 0.853069 21.5702L0.723833 20.1889L0.409486 21.3577ZM34.4233 21.1333C34.5112 21.825 34.2794 22.104 33.4427 22.3133C32.7767 22.4797 32.1926 23.4827 32.7616 23.4827C33.0823 23.4827 33.0819 23.5135 32.7571 23.8714C32.563 24.0851 32.4042 24.3788 32.4042 24.524C32.4042 24.888 31.9489 25.3083 31.349 25.4979C30.9435 25.6262 30.8717 25.592 30.9764 25.3202C31.0476 25.1353 31.0141 24.9273 30.902 24.8582C30.7898 24.7892 30.6981 24.9717 30.6981 25.2639C30.6981 25.5561 30.794 25.8542 30.9113 25.9265C31.0286 25.9987 31.1267 26.3151 31.1293 26.6296C31.1319 26.9441 31.308 27.4267 31.5206 27.7021L31.9071 28.203L32.1815 27.5428C32.3325 27.1798 32.5257 26.8827 32.6112 26.8827C32.6965 26.8827 32.9446 26.4524 33.1621 25.9265C33.569 24.9436 34.1103 24.6402 34.1103 25.3952C34.1103 25.6785 34.2525 25.8202 34.5368 25.8202C35.0748 25.8202 35.0842 26.5168 34.5585 27.414C34.2728 27.9013 33.9915 28.0766 33.3645 28.1578C32.9132 28.2162 32.5082 28.3728 32.4643 28.5058C32.3487 28.856 34.1122 29.6453 35.0098 29.6453C35.6696 29.6453 35.8055 29.5569 36 29.0014C36.3132 28.1057 36.7076 27.7721 37.3676 27.8443C37.7739 27.8887 37.9698 27.7897 38.0647 27.4918C38.2622 26.8715 37.9539 25.4001 37.5397 24.9874C37.2347 24.6835 37.2226 24.5811 37.4646 24.3557C37.6401 24.1925 37.6979 23.9054 37.6116 23.6253C37.4132 22.9812 37.3682 22.9591 36.9411 23.2929C36.5962 23.5628 36.589 23.5558 36.8588 23.213C37.1145 22.8885 37.1049 22.7823 36.7897 22.4353C36.589 22.2143 36.1804 21.9722 35.8816 21.8976C34.8897 21.6494 34.3979 20.843 35.1232 20.6541C35.357 20.5933 35.2811 20.5478 34.9202 20.5323C34.4022 20.5102 34.3519 20.571 34.4233 21.1333ZM69.9581 21.1452C69.9046 22.4508 69.5241 23.6914 68.3252 26.4705C67.6788 27.9682 66.961 30.0707 66.7212 31.167C66.4828 32.2584 66.1832 33.2472 66.0555 33.3641C65.8917 33.5141 65.8669 33.4544 65.9714 33.1611C66.3016 32.235 66.3525 30.8757 66.1058 29.5728C65.8541 28.244 65.2971 26.9968 63.3381 23.3764L62.4183 21.6764L62.5688 23.2702C62.7725 25.4235 63.1826 27.3318 64.1218 30.4953C64.7469 32.6008 64.9122 33.5177 64.9186 34.9179C64.9258 36.5637 64.9482 36.6511 65.2463 36.1982C65.4223 35.9309 66.2651 34.849 67.1192 33.7944C69.7056 30.6003 70.5994 28.151 70.5574 24.372C70.5356 22.4191 70.02 19.6415 69.9581 21.1452ZM49.002 22.8246C48.828 23.1021 48.5009 23.2702 48.1341 23.2702C47.731 23.2702 47.5457 23.3798 47.5457 23.6187C47.5457 23.8104 47.3779 24.0902 47.1725 24.2409C46.8193 24.5002 46.8208 24.5231 47.2006 24.6697C47.4256 24.7566 47.7871 24.7097 48.0228 24.5631C48.2674 24.4109 48.3842 24.3969 48.3019 24.5295C48.2111 24.6757 48.432 24.7577 48.9165 24.7577H49.673L49.6096 23.7003C49.5346 22.4444 49.3799 22.2215 49.002 22.8246ZM23.8027 23.6244C23.4722 23.9538 23.6863 24.5435 24.1815 24.6674C24.8633 24.838 25.1533 24.6391 25.1533 24.0014C25.1533 23.5734 25.0475 23.4827 24.5491 23.4827C24.2167 23.4827 23.8808 23.5464 23.8027 23.6244ZM33.1384 24.2103C32.9646 24.6315 32.6383 25.0512 31.8322 25.8895C31.4906 26.245 31.424 26.455 31.5818 26.6811C31.7691 26.949 31.8126 26.9492 31.9188 26.6823C31.9857 26.5136 32.2423 26.173 32.489 25.9254C33.1015 25.3102 33.5423 24.4345 33.4135 24.0881C33.3368 23.8818 33.2598 23.916 33.1384 24.2103ZM11.0781 26.3236C11.0781 27.7984 11.6767 30.8274 12.3945 32.9843C13.3418 35.8312 15.8172 39.9582 17.4576 41.426L17.9178 41.8376L19.3918 40.3801L20.8659 38.9225L20.2056 38.0916C19.8425 37.6347 19.3255 37.1776 19.0568 37.0759C18.7881 36.9741 18.4648 36.6984 18.3388 36.4634C18.2125 36.2284 17.9766 36.0869 17.8143 36.1489C17.6523 36.211 17.39 36.1011 17.2313 35.905C16.4397 34.9262 15.033 33.7332 14.7833 33.8288C14.6282 33.8881 14.3472 33.7829 14.1586 33.5953C13.7334 33.1715 13.4269 33.3294 13.5756 33.8955C13.6368 34.1291 13.5873 34.3203 13.4653 34.3203C13.0454 34.3203 12.6513 32.5177 12.7569 31.0797C12.7752 30.8295 12.9627 30.7078 13.3299 30.7078C13.63 30.7078 13.8204 30.7968 13.753 30.9056C13.5227 31.2769 14.0661 31.3733 14.4171 31.0236C14.756 30.6859 14.9995 30.6882 15.8551 31.0374C16.2162 31.1846 16.2426 31.1353 16.0993 30.5833C15.7988 29.4264 15.3582 26.7792 15.3508 26.0858L15.3433 25.3952H13.2107H11.0781V26.3236ZM16.2712 25.7197C16.1266 26.0952 16.5186 28.9304 16.8824 30.1404C17.0187 30.5937 17.2567 31.0129 17.4113 31.072C17.8457 31.2382 18.8101 30.5189 18.6636 30.1379C18.4571 29.6019 18.9163 28.3086 19.5633 27.6031C20.0542 27.068 20.1523 26.795 20.079 26.1687L19.9883 25.3952H18.1922C16.7781 25.3952 16.3697 25.4643 16.2712 25.7197ZM20.9561 25.7373C20.8836 25.9256 20.9107 26.4278 21.0162 26.853C21.1694 27.4709 21.3103 27.6276 21.717 27.6314C22.3154 27.6371 23.2339 28.8301 23.2339 29.6013C23.2339 29.876 23.3717 30.2379 23.5402 30.4058C23.7447 30.6096 23.8066 30.9556 23.7264 31.4475C23.6507 31.9131 23.734 32.452 23.9533 32.9125C24.1441 33.3131 24.3003 33.8299 24.3003 34.0609C24.3003 34.2919 24.4261 34.5849 24.5798 34.712C24.7948 34.8898 25.1966 34.6047 26.3175 33.4792L27.7753 32.0151L26.9765 30.8157C26.5371 30.1561 26.0036 29.1238 25.7905 28.5213C25.5777 27.9191 25.3126 27.3961 25.2013 27.3592C25.09 27.3222 25.0345 26.8651 25.078 26.3436L25.1573 25.3952H24.1757C23.3892 25.3952 23.173 25.4758 23.0877 25.8007C23.0292 26.0236 22.7855 26.2569 22.5462 26.3192C22.2308 26.4014 22.1429 26.5529 22.2263 26.8704C22.2941 27.1295 22.2551 27.2553 22.1305 27.1785C21.9331 27.057 21.9951 26.5155 22.2962 25.7337C22.3984 25.4683 22.2819 25.3952 21.7573 25.3952C21.3387 25.3952 21.0386 25.5234 20.9561 25.7373ZM29.4614 25.6619C29.2626 25.901 29.2517 26.0361 29.4224 26.1413C29.738 26.3358 29.8994 26.1513 29.8105 25.6976C29.7457 25.3655 29.7109 25.3621 29.4614 25.6619ZM46.9946 26.3513C47.239 26.8772 47.5276 27.3075 47.6355 27.3075C47.7436 27.3077 48.0068 27.4654 48.2202 27.6579C48.5928 27.9937 48.5847 28.0207 48.0238 28.3182C47.7022 28.4886 47.1991 28.6544 46.9059 28.6865C46.6127 28.7183 46.2049 28.8038 45.9995 28.8762C45.7942 28.9485 45.4809 29.053 45.3032 29.1085C45.1256 29.164 44.8804 29.471 44.7584 29.7908C44.6362 30.1107 44.1819 30.687 43.7486 31.0712C43.1719 31.5827 43.0612 31.7701 43.3359 31.7701C43.5424 31.7703 43.8755 31.579 44.0764 31.3453C44.7247 30.5909 45.0382 30.8034 44.9384 31.9297C44.8891 32.4849 44.7695 33.1174 44.6722 33.3354C44.5244 33.6669 44.5662 33.7096 44.9266 33.5955C45.2798 33.4839 45.3809 33.5751 45.4867 34.1023C45.5577 34.4559 45.7076 34.7453 45.82 34.7453C46.1842 34.7453 47.487 32.9775 48.2695 31.4214C49.1063 29.7573 49.6702 27.7021 49.6751 26.2984L49.6783 25.3952H48.1142H46.5502L46.9946 26.3513ZM50.6736 25.537C50.5953 25.6147 50.5313 26.0297 50.5313 26.4592C50.5313 28.5823 49.0402 32.3545 47.3676 34.4633L46.5112 35.5426L47.2418 36.2482C47.7924 36.78 47.9722 36.865 47.9722 36.5933C47.9722 36.0025 48.5932 36.185 48.7344 36.8172C49.098 38.445 49.1012 38.4461 50.0931 37.2565C52.2551 34.6631 53.9689 30.6451 54.3159 27.3556C54.418 26.3882 54.456 25.5516 54.4001 25.4962C54.2434 25.3398 50.834 25.3772 50.6736 25.537ZM55.3653 25.537C55.2871 25.6147 55.2231 26.0969 55.2231 26.6084C55.2231 29.9037 53.3756 34.5146 50.7858 37.6828L49.8427 38.8367L51.3724 40.3505L52.9024 41.8642L53.6537 41.0142C55.865 38.5132 57.8822 34.7421 58.737 31.5117C59.2974 29.3943 59.7965 25.9326 59.5894 25.5988C59.4482 25.3712 55.5884 25.3147 55.3653 25.537ZM37.0959 26.1264C37.0959 26.295 37.1829 26.4862 37.2893 26.5517C37.3955 26.6173 37.4324 26.4794 37.371 26.2454C37.2407 25.7492 37.0959 25.6866 37.0959 26.1264ZM26.2196 26.9441C26.2196 27.57 26.9812 29.3299 27.7062 30.3801L28.4062 31.3937L29.7936 30.0112C31.1242 28.6854 31.1677 28.6095 30.8523 28.1612L30.5236 27.6934L30.16 28.4567C29.6706 29.4844 29.2613 29.4506 29.4093 28.3945C29.4354 28.2085 29.3279 28.1469 29.1178 28.2272C28.9133 28.3054 28.699 28.1939 28.5612 27.9374C28.4379 27.7079 28.1965 27.5202 28.0249 27.5202C27.853 27.5202 27.7124 27.4246 27.7124 27.3077C27.7124 27.1909 27.4917 27.0952 27.2219 27.0952C26.9521 27.0952 26.6163 26.9805 26.4755 26.8402C26.2765 26.642 26.2196 26.6649 26.2196 26.9441ZM23.6605 27.3881C23.6605 27.4321 23.8044 27.5872 23.9804 27.7327C24.2425 27.9495 24.3003 27.9348 24.3003 27.6524C24.3003 27.4629 24.1563 27.3077 23.9804 27.3077C23.8044 27.3077 23.6605 27.3439 23.6605 27.3881ZM48.5721 27.4529C48.7259 27.5143 48.9099 27.5066 48.9807 27.4361C49.0515 27.3655 48.9257 27.3154 48.7009 27.3245C48.4525 27.3347 48.4019 27.3851 48.5721 27.4529ZM23.8769 28.3171C23.8829 28.608 24.2751 29.1038 24.4003 28.9789C24.5683 28.8114 24.3007 28.1578 24.0642 28.1578C23.9595 28.1578 23.8752 28.2296 23.8769 28.3171ZM33.6837 28.8027C33.6837 29.1072 34.1354 29.2802 34.3561 29.0602C34.4924 28.9245 34.4118 28.8123 34.1243 28.7375C33.8821 28.6741 33.6837 28.7037 33.6837 28.8027ZM36.7937 28.9793C36.7018 29.1274 36.6843 29.3059 36.7547 29.376C36.9456 29.5662 37.1537 29.2866 37.0505 28.9784C36.9784 28.7625 36.9281 28.7625 36.7937 28.9793ZM30.4249 30.4483C29.754 31.1237 29.2053 31.7801 29.2053 31.9069C29.2053 32.2117 30.5518 33.1269 31.8179 33.683C33.0358 34.2177 34.9633 34.4963 34.9633 34.1374C34.9633 34.0043 34.7771 33.8953 34.5494 33.8953C34.3216 33.8953 34.0755 33.7988 34.0023 33.6809C33.7742 33.3131 34.1201 32.6203 34.5319 32.6203C34.8639 32.6203 34.9179 32.4665 34.8799 31.6275L34.8349 30.6347L33.6906 30.2471C33.0612 30.0339 32.3869 29.7158 32.192 29.5399C31.9971 29.3641 31.794 29.2203 31.7409 29.2203C31.6878 29.2203 31.0956 29.773 30.4249 30.4483ZM40.7213 29.6123C40.7213 29.7111 40.8969 29.9502 41.1114 30.1436C41.5279 30.5193 42.2142 30.62 42.2142 30.3055C42.2142 30.1047 41.5784 29.767 41.3078 29.824C41.2199 29.8427 41.1479 29.7621 41.1479 29.6453C41.1479 29.5284 41.0519 29.4328 40.9346 29.4328C40.8173 29.4328 40.7213 29.5135 40.7213 29.6123ZM62.423 30.9203C61.9628 32.4174 61.7024 34.0764 61.3029 38.0587C60.9873 41.2039 60.7472 42.3204 60.0351 43.9554C59.7802 44.5406 59.7583 44.7255 59.9573 44.6086C62.4447 43.1496 66.067 40.5337 67.2672 39.3294C69.4079 37.1817 70.5915 34.5129 70.5685 31.885L70.5591 30.814L70.2703 31.6209C69.8157 32.8908 68.9914 33.9924 66.7609 36.3104C65.6212 37.4949 64.2965 39.0417 63.8171 39.7476C62.6175 41.514 62.0901 41.9188 62.7855 40.5392C63.0824 39.9504 63.4381 38.7453 63.5759 37.861C63.7985 36.4343 63.7748 35.9832 63.3645 33.8524C63.1103 32.5319 62.8753 31.069 62.8422 30.6015L62.7825 29.7515L62.423 30.9203ZM7.79109 31.0329C7.70813 31.6137 7.49081 32.8432 7.30805 33.7651C6.83482 36.1515 6.99413 38.5323 7.735 40.1433C8.05233 40.8333 8.27071 41.4387 8.22038 41.4889C8.17005 41.539 7.6482 40.879 7.06067 40.022C6.47335 39.1652 4.92635 37.3302 3.6229 35.9441C1.41352 33.5946 0.587986 32.4384 0.187908 31.1328C-0.122386 30.1202 -0.0255658 32.2008 0.311386 33.7855C1.03967 37.2119 3.02193 39.587 7.77253 42.725C9.41464 43.8096 10.7889 44.6667 10.8264 44.6295C10.864 44.5921 10.697 44.1756 10.4554 43.7038C9.94929 42.7152 9.4912 40.1996 9.15318 36.5516C8.92457 34.0851 8.46563 31.388 8.1129 30.4379C7.97364 30.0631 7.9135 30.1742 7.79109 31.0329ZM36.4561 30.4953C36.1962 30.6627 36.2237 30.7018 36.6035 30.7046C36.8605 30.7063 37.13 30.6122 37.2025 30.4953C37.3704 30.2248 36.8762 30.2248 36.4561 30.4953ZM34.3235 30.9203C34.3235 31.0372 34.4195 31.1328 34.5368 31.1328C34.6541 31.1328 34.75 31.0372 34.75 30.9203C34.75 30.8034 34.6541 30.7078 34.5368 30.7078C34.4195 30.7078 34.3235 30.8034 34.3235 30.9203ZM39.4418 30.8976C39.4418 31.027 39.3068 31.1328 39.1419 31.1328C38.9466 31.1328 38.8809 31.2815 38.9538 31.5589C39.0153 31.7932 38.9453 32.1294 38.7984 32.306C38.5779 32.5706 38.6156 32.7 39.0142 33.0442C39.4746 33.4423 39.5258 33.4448 40.1093 33.1014C40.7218 32.741 40.9118 32.4078 40.5051 32.4078C40.3863 32.4078 40.1027 32.5236 39.8751 32.6654C39.6474 32.8071 39.3882 32.8502 39.2991 32.7614C39.0598 32.523 39.5064 31.9163 40.1545 31.5992C40.764 31.3013 40.9122 30.9203 40.4189 30.9203C40.2526 30.9203 39.9647 30.8623 39.7792 30.7913C39.5936 30.7203 39.4418 30.7681 39.4418 30.8976ZM37.3625 32.7036C37.918 33.1237 37.8146 33.2506 37.1273 32.9922C36.3572 32.7023 35.8163 32.9031 35.8163 33.4788C35.8163 33.8146 35.9358 33.914 36.2962 33.879C36.5602 33.8532 36.9409 33.9032 37.1422 33.9901C37.3435 34.0768 37.9193 34.0109 38.4217 33.8435L39.3351 33.5387L38.642 33.1805C38.2609 32.9833 37.9489 32.7287 37.9489 32.6148C37.9489 32.5009 37.7331 32.4108 37.4691 32.4146C37.0247 32.4208 37.0168 32.4422 37.3625 32.7036ZM26.8509 34.1342L25.5005 35.648L26.2332 36.2454C28.3273 37.9522 31.2494 39.1645 33.633 39.3152L35.0699 39.4059L34.1103 39.1475C32.8499 38.8082 32.5795 38.6165 32.0333 37.6755C31.6087 36.9445 31.5989 36.8402 31.8975 36.2437C32.0747 35.8899 32.3811 35.5097 32.5784 35.3986C33.039 35.1395 32.7927 34.919 31.5253 34.4546C30.9832 34.2562 30.0719 33.7621 29.5 33.3571C28.928 32.9518 28.4019 32.6203 28.3307 32.6203C28.2594 32.6203 27.5934 33.3016 26.8509 34.1342ZM40.8431 33.6584C40.7019 33.886 42.4264 34.5343 43.5752 34.686C44.6511 34.828 44.4346 34.3958 43.3263 34.189C42.8906 34.1076 42.2253 33.9127 41.8478 33.7557C41.0363 33.4183 40.9945 33.4142 40.8431 33.6584ZM15.1332 36.3516C15.1381 36.6453 15.5169 37.1934 15.6342 37.0763C15.6896 37.0212 15.5988 36.7905 15.4324 36.5637C15.2661 36.3372 15.1315 36.2416 15.1332 36.3516ZM45.3395 36.6215C44.8409 37.1704 44.8917 37.3351 45.7345 37.9072C46.6165 38.5058 46.6472 38.7236 45.9426 39.3896C45.3777 39.9236 45.2629 40.2704 45.6513 40.2704C45.7844 40.2704 45.8402 40.4578 45.7778 40.6956C45.7035 40.9783 45.749 41.0741 45.9127 40.9814C46.1328 40.8571 47.7941 39.5912 48.2601 39.1928C48.3597 39.1076 48.2849 38.8609 48.0936 38.6448C47.9023 38.4286 47.3501 37.7975 46.8665 37.2422C46.383 36.687 45.9209 36.2329 45.8398 36.2329C45.7588 36.2329 45.5336 36.4077 45.3395 36.6215ZM10.4391 37.3738C10.5609 37.7093 10.9038 39.335 11.2013 40.9863C11.8415 44.54 12.4886 46.0375 14.0829 47.6549C14.6877 48.2684 15.0831 48.7705 14.9613 48.7705C14.8396 48.7705 14.0375 48.2403 13.1791 47.5922C12.3207 46.9443 10.3692 45.7838 8.84246 45.0137C5.56166 43.3589 4.28422 42.4755 3.28467 41.1712C2.37106 39.9791 2.34419 40.3161 3.20875 42.1211C3.97564 43.7225 6.30764 46.2878 8.09242 47.4938C9.63003 48.5327 11.2397 49.0908 14.4903 49.7117C15.9564 49.992 17.3479 50.2961 17.5825 50.3879C17.8689 50.4999 17.7124 50.2179 17.1055 49.5296C16.052 48.3342 15.3994 47.0325 14.3548 44.0423C13.3258 41.0966 12.3973 39.4025 10.6569 37.2954L10.218 36.7641L10.4391 37.3738ZM59.2115 38.3966C57.763 40.4247 57.4766 40.9927 56.3992 43.9737C55.1934 47.31 54.7727 48.1696 53.7362 49.4118L52.9354 50.3717L56.3672 49.6858C60.9116 48.7773 62.2767 48.1177 64.8019 45.6114C66.2197 44.2043 66.8349 43.4016 67.4412 42.167C68.3862 40.2434 68.4625 39.6771 67.6204 40.8354C66.6033 42.2344 65.3188 43.1668 62.2287 44.7493C60.6077 45.5796 58.6323 46.7371 57.8387 47.3217C55.6859 48.9078 55.4223 48.9732 56.6705 47.6115C58.4207 45.7022 58.8374 44.7087 59.4921 40.885C59.7299 39.4963 60.021 38.1071 60.139 37.7981C60.5156 36.8113 60.197 37.0168 59.2115 38.3966ZM21.1414 37.7338C21.1926 37.887 21.3607 38.0544 21.5146 38.1056C21.6746 38.1588 21.7546 38.0791 21.7012 37.9197C21.6498 37.7663 21.4818 37.5988 21.328 37.5478C21.1681 37.4947 21.0881 37.5744 21.1414 37.7338ZM26.2966 37.8797C26.3194 38.1664 26.1315 38.2674 25.476 38.3207C25.0083 38.3585 24.5092 38.4858 24.3672 38.6033C24.225 38.7208 23.724 38.7893 23.254 38.7555C22.7838 38.7217 22.3406 38.7523 22.2692 38.8235C22.0442 39.0477 24.7639 41.0911 26.4329 41.9519C28.5791 43.0589 31.2754 43.8751 33.2996 44.0306L34.9633 44.1584V42.2452V40.3318L33.5884 40.2039C31.8433 40.0415 29.2439 39.1826 27.6438 38.2395C26.9609 37.8372 26.3719 37.5079 26.3345 37.5079C26.2974 37.5079 26.2804 37.6751 26.2966 37.8797ZM35.8163 39.2079C35.8163 39.3248 36.1283 39.4136 36.5094 39.4055C37.0904 39.393 37.1334 39.3609 36.776 39.2079C36.1868 38.9557 35.8163 38.9557 35.8163 39.2079ZM19.9602 41.0885L18.5106 42.5442L19.5394 43.4507C23.2915 46.7573 28.6885 48.9654 33.6837 49.2378L34.8567 49.3018L34.917 47.1557L34.9776 45.0096L33.3176 44.8775C29.9252 44.6072 25.9914 43.0461 23.0791 40.814C22.2316 40.1644 21.5093 39.6329 21.4739 39.6329C21.4387 39.6329 20.7576 40.2878 19.9602 41.0885ZM48.4851 40.0819C48.2616 40.3288 47.1671 41.1455 46.0529 41.8967C44.9386 42.6479 43.643 43.5385 43.1738 43.8757C42.2523 44.5381 41.4187 44.7986 41.3052 44.4595C41.2605 44.3256 40.5345 44.376 39.3251 44.5972C38.275 44.7893 37.056 44.9461 36.6161 44.9459L35.8163 44.9455V47.1793V49.4131L36.6161 49.3122C37.056 49.2569 37.9436 49.1547 38.5887 49.0854C42.6418 48.65 46.969 46.7747 50.6552 43.8555L52.2878 42.5629L50.8288 41.0979C50.0263 40.2921 49.2622 39.6329 49.1306 39.6329C48.9991 39.6329 48.7086 39.835 48.4851 40.0819ZM35.8163 42.1829V44.0955H36.5986C37.0289 44.0955 37.9916 43.9894 38.7382 43.86C39.8598 43.6653 40.0528 43.5731 39.8491 43.3287C39.7137 43.166 39.4725 43.0329 39.3132 43.0329C38.9854 43.0329 38.6951 42.1296 38.8736 41.6657C38.9385 41.4976 38.7979 41.1149 38.5614 40.8153C38.1942 40.3501 37.9622 40.2704 36.9737 40.2704H35.8163V42.1829ZM20.8881 43.8579C20.8881 43.9748 20.984 44.1295 21.1013 44.2017C21.2186 44.274 21.3146 44.2374 21.3146 44.1205C21.3146 44.0037 21.2186 43.8489 21.1013 43.7767C20.984 43.7044 20.8881 43.741 20.8881 43.8579ZM54.2361 44.9986C53.6364 45.4954 51.9794 46.9829 50.5539 48.3045C47.9313 50.736 46.5527 51.6123 44.9285 51.8809C44.0589 52.0246 43.6255 52.3831 44.3212 52.3831C44.5558 52.3831 45.929 52.671 47.3727 53.0231C52.6887 54.3192 55.1412 54.2718 58.1185 52.8161C59.8506 51.9693 61.9141 50.2508 62.4671 49.1949L62.745 48.6643L62.2364 49.1184C60.7538 50.4418 58.6813 51.0007 53.7121 51.4174C51.6493 51.5904 49.8259 51.7749 49.6602 51.8274C48.8214 52.0921 48.1855 52.1576 48.1855 51.9791C48.1855 51.8692 48.4975 51.7137 48.8786 51.6333C50.1622 51.3633 51.6362 50.4019 52.4513 49.3039C53.0811 48.4554 55.5204 44.0955 55.3653 44.0955C55.344 44.0955 54.836 44.5018 54.2361 44.9986ZM16.5924 46.5924C18.1434 49.5583 19.388 50.8445 21.3146 51.4721C22.3839 51.8206 22.5545 51.9266 22.061 51.9357C21.7091 51.9423 21.0374 51.8603 20.5682 51.7536C20.099 51.6469 18.3236 51.4527 16.6229 51.322C12.2792 50.9886 9.9849 50.3881 8.67761 49.2429C8.4716 49.0625 8.2481 48.9694 8.18114 49.0364C8.11396 49.1033 8.66631 49.768 9.40867 50.5137C10.9275 52.0394 13.0576 53.2507 14.95 53.6651C17.1916 54.156 21.8635 53.5752 26.4297 52.2383C26.6039 52.1873 26.0496 51.9117 25.1977 51.6257C23.1188 50.9283 22.3397 50.404 19.7663 47.9713C17.5987 45.9221 15.7225 44.308 15.5084 44.308C15.4474 44.308 15.9351 45.336 16.5924 46.5924ZM28.6077 52.5871C27.7515 52.8181 26.216 53.3521 25.1955 53.7739C20.716 55.6261 20.6966 55.6316 18.5422 55.6373C16.8447 55.642 16.2917 55.553 15.13 55.0872L13.7438 54.5315L14.5969 55.2907C15.0661 55.7085 16.1639 56.3919 17.0366 56.8095C20.5211 58.4768 24.5538 57.8076 28.4921 54.9087C30.2701 53.5998 31.7669 52.9842 32.9827 53.0618L34.0036 53.1268L32.5108 53.9044C30.7183 54.8377 28.4237 56.4293 26.966 57.7504L25.8997 58.7167L26.4167 59.2686C26.7011 59.5722 27.0409 59.8207 27.172 59.8207C27.3032 59.8207 27.8383 59.3782 28.3612 58.8374C29.7535 57.3973 33.0702 54.6925 34.164 54.1052C34.8036 53.7616 35.2864 53.6394 35.6483 53.7299C36.654 53.9815 38.9052 55.6601 41.1496 57.8316L43.3903 60L44.1352 59.375L44.8799 58.7501L44.0269 57.9819C42.4029 56.5192 39.8591 54.7427 38.3861 54.0425C37.5723 53.6557 36.9012 53.2675 36.8946 53.1799C36.8709 52.8661 38.9253 53.0376 39.7617 53.4192C40.2308 53.6334 41.533 54.4307 42.6554 55.1913C45.293 56.9782 46.6886 57.5033 49.1682 57.6419C50.787 57.7324 51.3413 57.6737 52.4968 57.2906C54.0339 56.781 55.4822 55.9278 56.2804 55.0617L56.8046 54.493L55.8503 54.9135C54.4541 55.5289 52.3718 55.8044 50.8032 55.581C50.0447 55.4728 47.9886 54.7971 46.0049 54.0036C41.9751 52.3918 40.3151 52.0411 37.857 52.2825C35.9051 52.4742 35.2855 52.4757 32.2975 52.2957C30.5526 52.1907 29.8819 52.2437 28.6077 52.5871Z" fill="white"/>
</svg>
